<?xml version="1.0" encoding="utf-8"?>
<!-- Generator: Adobe Illustrator 16.0.0, SVG Export Plug-In . SVG Version: 6.00 Build 0)  -->
<!DOCTYPE svg PUBLIC "-//W3C//DTD SVG 1.1//EN" "http://www.w3.org/Graphics/SVG/1.1/DTD/svg11.dtd">
<svg version="1.1" id="Ebene_1" xmlns="http://www.w3.org/2000/svg" xmlns:xlink="http://www.w3.org/1999/xlink" x="0px" y="0px"
	 width="44.833px" height="44.833px" viewBox="0 0 44.833 44.833" enable-background="new 0 0 44.833 44.833" xml:space="preserve">
<path fill="#EA5B0C" d="M20.253,9.261c-9.937,0-18.106,5.468-19.091,12.477l3.024,3.026l-2.342,2.339
	c2.348,5.759,9.7,9.96,18.409,9.96c10.6,0,19.188-6.223,19.188-13.899S30.853,9.261,20.253,9.261z M8.688,20.825
	c-1.224,0-2.214-0.993-2.214-2.215c0-1.224,0.992-2.213,2.214-2.213c1.222,0,2.213,0.993,2.213,2.213
	C10.901,19.834,9.912,20.825,8.688,20.825z"/>
<path fill="#EA5B0C" d="M11.886,10.984c0,0,1.232-11.319,12.546-9.84l-1.965,9.347"/>
<path fill="#EA5B0C" d="M12.181,33.424c0,0,1.231,11.387,12.549,9.904l-1.971-9.41"/>
<path fill="#EA5B0C" d="M42.851,8.797c-4.254,12.85-10.234,11.439-10.234,11.439l0.381,4.73c0,0,9.785,10.151,10.354,10.249
	c0.57,0.098-0.104-8.155-0.104-13.472C43.248,16.425,44.843,2.789,42.851,8.797z"/>
</svg>
